<svg width="111" height="100" viewBox="0 0 111 100" fill="none" xmlns="http://www.w3.org/2000/svg">
<path d="M90.9275 65.625L71.6412 30.5C72.3812 28.7917 72.7975 26.9167 72.7975 25C72.7975 16.375 65.0275 9.375 55.4537 9.375C45.88 9.375 38.11 16.375 38.11 25C38.11 26.9583 38.5725 28.7917 39.2662 30.5L19.98 65.625C17.575 70.0417 18.5462 75.3333 22.385 78.7917L26.3162 82.3333L24.4662 86.2917C23.7262 87.875 24.5587 89.7083 26.3162 90.375C26.7325 90.5417 27.195 90.625 27.6575 90.625C28.9987 90.625 30.2937 89.9167 30.8487 88.7083L33.5775 82.7917L53.1875 40.4167C53.9275 40.5 54.6675 40.625 55.4075 40.625C56.1475 40.625 56.8875 40.5 57.6275 40.4167L77.2375 82.7917L79.9662 88.7083C80.5212 89.9167 81.8162 90.625 83.1575 90.625C83.62 90.625 84.0362 90.5417 84.4987 90.375C86.2562 89.7083 87.0887 87.875 86.3487 86.2917L84.4987 82.3333L88.43 78.7917C92.2687 75.3333 93.24 70 90.835 65.625H90.9275ZM29.23 76.0833L27.3337 74.375C25.5762 72.7917 25.16 70.375 26.2237 68.375L43.7525 36.4167C44.6312 37.1667 45.6025 37.7917 46.6662 38.3333L29.23 76.0417V76.0833ZM45.0475 24.9583C45.0475 19.7917 49.7187 15.5833 55.4537 15.5833C61.1887 15.5833 65.86 19.7917 65.86 24.9583C65.86 30.125 61.1887 34.3333 55.4537 34.3333C49.7187 34.3333 45.0475 30.125 45.0475 24.9583ZM83.5737 74.375L81.6775 76.0833L64.2412 38.375C65.2587 37.8333 66.23 37.1667 67.155 36.4583L84.6837 68.4167C85.7937 70.4167 85.3312 72.8333 83.5737 74.4167V74.375Z" fill="#474747"/>
<path d="M55.5925 21.875H55.5463C53.65 21.875 52.1238 23.2917 52.1238 25C52.1238 26.7083 53.6963 28.125 55.5925 28.125C57.4888 28.125 59.0613 26.7083 59.0613 25C59.0613 23.2917 57.4888 21.875 55.5925 21.875Z" fill="#474747"/>
</svg>
