<svg width="100" height="100" viewBox="0 0 100 100" fill="none" xmlns="http://www.w3.org/2000/svg">
<path d="M79.1667 21.875H40.2917C39.6667 18.75 38.0833 15.875 35.75 13.6667C32.625 10.7083 28.5 9.16667 24.1667 9.41667C15.875 9.83334 9.375 17 9.375 25.7083V75C9.375 83.625 16.375 90.625 25 90.625H79.1667C85.5 90.625 90.625 85.5 90.625 79.1667V33.3333C90.625 27 85.5 21.875 79.1667 21.875ZM15.625 25.7083C15.625 20.4167 19.5833 15.9167 24.5 15.625C24.6667 15.625 24.8333 15.625 25 15.625C27.4167 15.625 29.7083 16.5417 31.4583 18.2083C33.3333 20 34.375 22.4167 34.375 25V60.375C34.375 60.9167 34.0417 61.2917 33.7083 61.4583C33.25 61.7083 32.9583 61.5417 32.875 61.4583C27.4583 58.2917 20.2917 58.9167 15.625 62.4583V25.7083ZM84.375 79.1667C84.375 82.0417 82.0417 84.375 79.1667 84.375H25C19.8333 84.375 15.625 80.1667 15.625 75C15.625 69.8333 19.8333 65.625 25 65.625C26.6667 65.625 28.2917 66.0833 29.75 66.9167C31.9583 68.2083 34.5833 68.2083 36.8333 66.9167C39.1667 65.5833 40.625 63.0833 40.625 60.4167V28.1667H79.1667C82.0417 28.1667 84.375 30.5 84.375 33.375V79.2083V79.1667Z" fill="#474747"/>
<path d="M74.875 41.1667L66.5417 35.625C64.0833 34 60.9167 34 58.4583 35.625L50.125 41.1667C48.0833 42.5 46.875 44.7917 46.875 47.25V58.375C46.875 62.375 50.1667 65.6667 54.1667 65.6667H70.8333C74.8333 65.6667 78.125 62.375 78.125 58.375V47.25C78.125 44.7917 76.9167 42.5417 74.875 41.1667ZM71.875 58.3333C71.875 58.9167 71.4167 59.375 70.8333 59.375H54.1667C53.5833 59.375 53.125 58.9167 53.125 58.3333V47.2083C53.125 46.875 53.2917 46.5417 53.5833 46.3333L61.9167 40.7917C61.9167 40.7917 62.2917 40.625 62.5 40.625C62.7083 40.625 62.9167 40.6667 63.0833 40.7917L71.4167 46.3333C71.7083 46.5417 71.875 46.8333 71.875 47.2083V58.3333Z" fill="#474747"/>
<path d="M75 71.875H50C48.2917 71.875 46.875 73.2917 46.875 75C46.875 76.7083 48.2917 78.125 50 78.125H75C76.7083 78.125 78.125 76.7083 78.125 75C78.125 73.2917 76.7083 71.875 75 71.875Z" fill="#474747"/>
</svg>
