<svg width="100" height="100" viewBox="0 0 100 100" fill="none" xmlns="http://www.w3.org/2000/svg">
<path d="M86.875 29.4167L53.5417 10.9167C51.3333 9.66675 48.6667 9.66675 46.4583 10.9167L13.125 29.4167C10.7917 30.7084 9.375 33.1251 9.375 35.7917V46.4584C9.375 48.3334 10.3333 50.0001 11.9583 50.9584C12.4583 51.2501 13 51.4167 13.5417 51.5417V79.1667C13.5417 85.5001 18.6667 90.6251 25 90.6251H75C81.3333 90.6251 86.4583 85.5001 86.4583 79.1667V51.5417C87 51.4167 87.5417 51.2501 88.0417 50.9584C89.625 50.0001 90.625 48.3334 90.625 46.4584V35.7917C90.625 33.1251 89.2083 30.7084 86.875 29.4167ZM32.2917 71.8751V57.2917H67.7083V71.8751H32.2917ZM19.7083 49.5834L26.0417 46.0834V71.9167H19.7917V50.0417C19.7917 50.0417 19.7083 49.7501 19.7083 49.6251V49.5834ZM32.2917 44.7917H67.7083V51.0417H32.2917V44.7917ZM39.5833 38.5417L49.5 33.0417C49.7917 32.8751 50.1667 32.8751 50.5 33.0417L60.4167 38.5417H39.5417H39.5833ZM73.9583 46.0417L80.2917 49.5418C80.2917 49.5418 80.2083 49.8334 80.2083 49.9584V71.8334H73.9583V46.0001V46.0417ZM15.625 35.7917C15.625 35.4167 15.8333 35.0834 16.1667 34.8751L49.5 16.3751C49.7917 16.2084 50.1667 16.2084 50.5 16.3751L83.8333 34.8751C84.1667 35.0417 84.375 35.4167 84.375 35.7917V44.7084L53.5417 27.5834C52.4167 26.9584 51.2083 26.6667 50 26.6667C48.7917 26.6667 47.5833 26.9584 46.4583 27.5834L15.625 44.7084V35.7917ZM80.2083 79.1667C80.2083 82.0417 77.875 84.3751 75 84.3751H25C22.125 84.3751 19.7917 82.0417 19.7917 79.1667V78.1251H80.2083V79.1667Z" fill="#474747"/>
</svg>
